<svg width="38" height="38" viewBox="0 0 38 38" fill="none" xmlns="http://www.w3.org/2000/svg">
<path d="M19 23.3542C18.3508 23.3542 17.8125 22.8158 17.8125 22.1667V14.25C17.8125 13.6008 18.3508 13.0625 19 13.0625C19.6492 13.0625 20.1875 13.6008 20.1875 14.25V22.1667C20.1875 22.8158 19.6492 23.3542 19 23.3542Z" fill="#FA94CE"/>
<path d="M19 28.5C18.905 28.5 18.7942 28.4842 18.6833 28.4683C18.5883 28.4525 18.4933 28.4208 18.3983 28.3733C18.3033 28.3417 18.2083 28.2942 18.1133 28.2308C18.0342 28.1675 17.955 28.1042 17.8758 28.0408C17.5908 27.74 17.4167 27.3283 17.4167 26.9167C17.4167 26.505 17.5908 26.0933 17.8758 25.7925C17.955 25.7292 18.0342 25.6658 18.1133 25.6025C18.2083 25.5392 18.3033 25.4917 18.3983 25.46C18.4933 25.4125 18.5883 25.3808 18.6833 25.365C18.8892 25.3175 19.1108 25.3175 19.3008 25.365C19.4117 25.3808 19.5067 25.4125 19.6017 25.46C19.6967 25.4917 19.7917 25.5392 19.8867 25.6025C19.9658 25.6658 20.045 25.7292 20.1242 25.7925C20.4092 26.0933 20.5833 26.505 20.5833 26.9167C20.5833 27.3283 20.4092 27.74 20.1242 28.0408C20.045 28.1042 19.9658 28.1675 19.8867 28.2308C19.7917 28.2942 19.6967 28.3417 19.6017 28.3733C19.5067 28.4208 19.4117 28.4525 19.3008 28.4683C19.2058 28.4842 19.095 28.5 19 28.5Z" fill="#FA94CE"/>
<path d="M28.595 35.0867H9.40499C6.31749 35.0867 3.95833 33.9625 2.75499 31.9358C1.56749 29.9092 1.72583 27.2967 3.22999 24.5892L12.825 7.33083C14.4083 4.48083 16.5933 2.91333 19 2.91333C21.4067 2.91333 23.5917 4.48083 25.175 7.33083L34.77 24.605C36.2742 27.3125 36.4483 29.9092 35.245 31.9517C34.0417 33.9625 31.6825 35.0867 28.595 35.0867ZM19 5.28833C17.5117 5.28833 16.055 6.42833 14.8992 8.48666L5.31999 25.7608C4.24333 27.6925 4.06916 29.4658 4.81333 30.7483C5.55749 32.0308 7.20416 32.7275 9.42083 32.7275H28.6108C30.8275 32.7275 32.4583 32.0308 33.2183 30.7483C33.9783 29.4658 33.7883 27.7083 32.7117 25.7608L23.1008 8.48666C21.945 6.42833 20.4883 5.28833 19 5.28833Z" fill="#FA94CE"/>
</svg>
