<svg width="45" height="45" viewBox="0 0 45 45" fill="none" xmlns="http://www.w3.org/2000/svg">
<path d="M34.6773 17.348H27.6519V10.3226C27.6519 8.95626 27.1092 7.64584 26.143 6.67966C25.1768 5.71348 23.8664 5.17068 22.5 5.17068C21.1336 5.17068 19.8232 5.71348 18.857 6.67966C17.8908 7.64584 17.348 8.95626 17.348 10.3226V17.348H10.3226C8.95626 17.348 7.64584 17.8908 6.67966 18.857C5.71348 19.8232 5.17068 21.1336 5.17068 22.5C5.17068 23.8664 5.71348 25.1768 6.67966 26.143C7.64584 27.1092 8.95626 27.6519 10.3226 27.6519H17.348V34.6773C17.348 36.0437 17.8908 37.3541 18.857 38.3203C19.8232 39.2865 21.1336 39.8293 22.5 39.8293C23.8664 39.8293 25.1768 39.2865 26.143 38.3203C27.1092 37.3541 27.6519 36.0437 27.6519 34.6773V27.6519H34.6773C36.0437 27.6519 37.3541 27.1092 38.3203 26.143C39.2865 25.1768 39.8293 23.8664 39.8293 22.5C39.8293 21.1336 39.2865 19.8232 38.3203 18.857C37.3541 17.8908 36.0437 17.348 34.6773 17.348Z" stroke="#FA94CE" stroke-width="0.936719" stroke-linecap="round" stroke-linejoin="round"/>
<path d="M27.656 27.6562H17.3435" stroke="#FA94CE" stroke-width="0.936719" stroke-linecap="round" stroke-linejoin="round"/>
<path d="M17.3435 17.3438V27.6562" stroke="#FA94CE" stroke-width="0.936719" stroke-linecap="round" stroke-linejoin="round"/>
</svg>
