<svg width="38" height="38" viewBox="0 0 38 38" fill="none" xmlns="http://www.w3.org/2000/svg">
<path d="M4.35415 29.5292C3.70499 29.5292 3.16665 28.9908 3.16665 28.3417V19.3167C3.08749 15.0258 4.68665 10.9725 7.66332 7.93252C10.64 4.90835 14.63 3.24585 18.9208 3.24585C27.6925 3.24585 34.8333 10.3867 34.8333 19.1583V28.1833C34.8333 28.8325 34.295 29.3708 33.6458 29.3708C32.9967 29.3708 32.4583 28.8325 32.4583 28.1833V19.1583C32.4583 11.7009 26.3942 5.62085 18.9208 5.62085C15.2633 5.62085 11.875 7.03002 9.35749 9.59502C6.82415 12.1758 5.47832 15.6117 5.54165 19.285V28.3258C5.54165 28.9908 5.01915 29.5292 4.35415 29.5292Z" fill="#FA94CE"/>
<path d="M9.40499 19.7125H9.19916C5.87416 19.7125 3.16666 22.42 3.16666 25.745V28.7217C3.16666 32.0467 5.87416 34.7542 9.19916 34.7542H9.40499C12.73 34.7542 15.4375 32.0467 15.4375 28.7217V25.745C15.4375 22.42 12.73 19.7125 9.40499 19.7125Z" fill="#FA94CE"/>
<path d="M28.8008 19.7125H28.595C25.27 19.7125 22.5625 22.42 22.5625 25.745V28.7217C22.5625 32.0467 25.27 34.7542 28.595 34.7542H28.8008C32.1258 34.7542 34.8333 32.0467 34.8333 28.7217V25.745C34.8333 22.42 32.1258 19.7125 28.8008 19.7125Z" fill="#FA94CE"/>
</svg>
