<svg width="99" height="87" viewBox="0 0 99 87" fill="none" xmlns="http://www.w3.org/2000/svg">
<g clip-path="url(#clip0_43_141)">
<mask id="mask0_43_141" style="mask-type:luminance" maskUnits="userSpaceOnUse" x="0" y="-17" width="104" height="104">
<path d="M0.289733 -16.071H103.361V87H0.289733V-16.071Z" fill="white"/>
</mask>
<g mask="url(#mask0_43_141)">
<path d="M47.7101 61.0974C45.8377 61.7309 43.9652 62.3643 42.0928 62.9956C41.7213 62.2892 41.0621 61.2134 39.9583 60.2063C37.4782 57.9387 35.8613 58.6559 32.9839 56.923C29.2454 54.6726 30.2117 52.3385 26.0502 50.0709C24.4333 49.1905 23.5915 49.1626 22.2709 47.9408C21.1457 46.8972 21.4743 46.6546 19.2389 43.7944C17.7916 41.9412 17.068 41.0157 16.6493 40.5712C16.4646 40.3737 15.9922 39.8755 15.5047 39.1154C14.9314 38.2242 14.3538 37.3266 14.6845 36.7769C15.0774 36.1199 16.514 36.3732 16.5913 36.3883C17.4309 36.5429 17.9742 37.0303 18.3156 37.3417C19.0564 38.0202 19.1616 38.5163 20.2224 40.305C20.7657 41.2219 21.0405 41.6792 21.2875 41.9885C21.5623 42.332 22.6038 43.6011 24.2851 44.2345C25.1376 44.5566 25.4983 44.4643 27.4545 44.6039C28.919 44.707 30.6412 44.8959 31.5473 45.0656C32.9066 45.3211 34.7898 45.9803 36.9328 47.8034C36.4217 46.5816 35.8226 45.7377 35.3631 45.188C34.9186 44.6554 34.6717 44.4686 33.394 43.0557C32.6725 42.2547 32.4084 41.9412 32.2044 41.413C31.921 40.6807 32.1335 40.5218 31.8351 39.7316C31.7749 39.5727 31.6955 39.3945 30.7678 37.9665C30.1537 37.0239 29.9626 36.7512 30.07 36.4892C30.2289 36.1091 30.8988 36.049 31.0556 36.0383C32.636 35.9395 34.2615 37.7003 34.9938 39.4439C35.2128 39.9635 35.1097 39.9077 35.3223 40.3887C35.6143 41.0458 36.2972 42.2612 38.2362 43.5066C39.6255 44.3999 39.7823 44.0993 41.7234 45.0656C44.429 46.4119 45.9901 47.9215 46.3681 48.2973C47.2055 49.1283 47.7939 49.9056 48.1654 50.4403C48.0129 53.9919 47.8626 57.5457 47.7101 61.0974Z" fill="#FF66C4"/>
<path d="M18.869 35.0537C18.564 35.2384 18.4867 35.7215 18.4996 35.9964C18.5082 36.1789 18.5619 36.4301 19.2383 37.2697C19.8567 38.0342 20.065 38.1394 20.3463 38.6655C20.5417 39.0305 20.4623 39.0198 20.6748 39.4858C20.8917 39.9625 21.2568 40.4456 21.9869 41.414C22.281 41.8049 22.382 42.1141 22.7406 42.4963C22.7406 42.4963 22.9918 42.7604 23.2688 42.973C24.1105 43.615 25.3495 43.7203 26.0109 43.7782C26.9751 43.8641 27.9349 44.0101 28.9012 44.0488C30.1874 44.1025 32.0298 44.3795 34.379 45.4038C33.2001 44.4375 32.1351 43.993 31.3685 43.7675C30.2948 43.4518 29.904 43.5914 28.8862 43.1534C27.8426 42.7067 27.8641 42.3782 26.5413 41.618C24.8879 40.6689 24.583 40.9803 23.8507 40.3039C22.8436 39.372 23.3117 38.6784 22.3154 37.2289C21.2933 35.7408 19.5454 34.6457 18.869 35.0537Z" fill="#FF66C4"/>
<path d="M22.7466 35.5871C22.8411 36.1411 23.1718 36.1969 23.4638 36.7359C23.992 37.7065 23.4015 38.4194 24.0393 39.3728C24.1788 39.5811 24.327 39.725 24.4387 39.8345C25.0227 40.4014 25.6433 40.6161 25.8537 40.6955C27.4535 41.2903 29.0103 42.714 29.1499 42.5401C29.2766 42.3812 27.7498 41.475 27.1507 39.6713C26.9145 38.9605 26.7127 38.1703 26.7127 38.1703C26.4915 37.3006 26.4915 37.0924 26.2854 36.6951C26.0298 36.2034 25.7142 35.9221 25.2697 35.5248C24.3377 34.6938 23.7064 34.595 23.5153 34.5714C23.2598 34.5413 23.0902 34.5671 22.9613 34.6637C22.6457 34.9042 22.7251 35.4625 22.7466 35.5871Z" fill="#FF66C4"/>
<path d="M50.9322 61.0974C52.8047 61.7309 54.6771 62.3643 56.5496 62.9956C56.9211 62.2892 57.5803 61.2134 58.684 60.2063C61.1642 57.9387 62.7811 58.6559 65.6585 56.923C69.397 54.6726 68.4307 52.3385 72.5922 50.0709C74.2091 49.1905 75.0508 49.1626 76.3714 47.9408C77.4966 46.8972 77.1681 46.6546 79.4034 43.7944C80.8507 41.9412 81.5744 41.0157 81.9931 40.5712C82.1778 40.3737 82.6502 39.8755 83.1376 39.1154C83.711 38.2242 84.2886 37.3266 83.9579 36.7769C83.5649 36.1199 82.1284 36.3732 82.0511 36.3883C81.2115 36.5429 80.6682 37.0303 80.3268 37.3417C79.586 38.0202 79.4807 38.5163 78.42 40.305C77.8767 41.2219 77.6018 41.6792 77.3549 41.9885C77.0801 42.332 76.0386 43.6011 74.3573 44.2345C73.5048 44.5566 73.144 44.4643 71.1878 44.6039C69.7234 44.707 68.0012 44.8959 67.095 45.0656C65.7358 45.3211 63.8526 45.9803 61.7096 47.8034C62.2206 46.5816 62.8197 45.7377 63.2793 45.188C63.7238 44.6554 63.9707 44.4686 65.2484 43.0557C65.9699 42.2547 66.234 41.9412 66.438 41.413C66.7214 40.6807 66.5088 40.5218 66.8073 39.7316C66.8674 39.5727 66.9469 39.3945 67.8745 37.9665C68.4887 37.0239 68.6798 36.7512 68.5724 36.4892C68.4135 36.1091 67.7435 36.049 67.5868 36.0383C66.0064 35.9395 64.3808 37.7003 63.6486 39.4439C63.4296 39.9635 63.5327 39.9077 63.3201 40.3887C63.028 41.0458 62.3452 42.2612 60.4062 43.5066C59.0169 44.3999 58.8601 44.0993 56.9189 45.0656C54.2133 46.4119 52.6522 47.9215 52.2743 48.2973C51.4368 49.1283 50.8485 49.9056 50.477 50.4403C50.6295 53.9919 50.7798 57.5457 50.9322 61.0974Z" fill="#FF66C4"/>
<path d="M79.7735 35.0537C80.0784 35.2384 80.1557 35.7215 80.1428 35.9964C80.1342 36.1789 80.0805 36.4301 79.4041 37.2697C78.7857 38.0342 78.5774 38.1394 78.2961 38.6655C78.1007 39.0305 78.1801 39.0198 77.9676 39.4858C77.7507 39.9625 77.3856 40.4456 76.6556 41.414C76.3614 41.8049 76.2605 42.1141 75.9018 42.4963C75.9018 42.4963 75.6506 42.7604 75.3736 42.973C74.5319 43.615 73.2929 43.7203 72.6315 43.7782C71.6673 43.8641 70.7075 44.0101 69.7412 44.0488C68.455 44.1025 66.6126 44.3795 64.2634 45.4038C65.4423 44.4375 66.5074 43.993 67.2739 43.7675C68.3476 43.4518 68.7384 43.5914 69.7562 43.1534C70.7998 42.7067 70.7784 42.3782 72.1011 41.618C73.7545 40.6689 74.0595 40.9803 74.7917 40.3039C75.7988 39.372 75.3307 38.6784 76.327 37.2289C77.3491 35.7408 79.0971 34.6457 79.7735 35.0537Z" fill="#FF66C4"/>
<path d="M75.896 35.5871C75.8015 36.1411 75.4708 36.1969 75.1788 36.7359C74.6506 37.7065 75.2411 38.4194 74.6033 39.3728C74.4637 39.5811 74.3156 39.725 74.2039 39.8345C73.6199 40.4014 72.9993 40.6161 72.7888 40.6955C71.1891 41.2903 69.6323 42.714 69.4927 42.5401C69.366 42.3812 70.8928 41.475 71.4919 39.6713C71.7281 38.9605 71.9299 38.1703 71.9299 38.1703C72.1511 37.3006 72.1511 37.0924 72.3572 36.6951C72.6128 36.2034 72.9284 35.9221 73.3729 35.5248C74.3048 34.6938 74.9362 34.595 75.1273 34.5714C75.3828 34.5413 75.5524 34.5671 75.6813 34.6637C75.9969 34.9042 75.9175 35.4625 75.896 35.5871Z" fill="#FF66C4"/>
<path d="M43.9691 43.8362C42.0236 35.947 40.2714 27.5703 35.7513 20.7891C33.6513 17.4565 31.242 13.7652 28.8821 10.7118C27.6989 9.18931 26.3268 7.94387 25.485 7.89019C21.2269 6.74352 18.2615 12.0452 20.8468 15.1911C23.823 18.7792 28.721 16.9733 32.2491 14.9334C34.6197 13.4625 36.3698 11.7382 39.1376 10.6967C47.7827 7.02268 57.83 7.86013 66.2131 11.9035C69.666 13.2542 73.383 15.6764 77.0077 16.4064C80.5357 17.3749 82.8849 14.141 82.6122 11.0682C81.9229 6.74782 78.2295 6.46223 74.6349 7.98467C69.3718 10.3446 66.2389 15.4831 63.3293 20.5529C59.2064 27.463 57.0419 35.597 55.4594 43.746C55.4336 43.9951 55.0278 43.9844 55.0492 43.7117C56.0649 30.6023 63.3035 4.06153 79.578 4.01858C90.3017 5.6484 86.881 22.4275 76.3377 20.205C70.0761 18.9231 64.9569 14.9506 58.8715 13.4346C51.9507 11.7725 44.1795 12.0195 37.9674 15.7579C33.8982 18.8179 28.7489 21.8971 23.4043 20.8192C16.2387 19.301 13.7671 10.2587 19.9557 5.9254C21.7959 4.69928 24.1365 4.52749 26.2108 5.03856C28.4118 5.64625 29.8033 7.47791 31.0466 9.11416C33.4601 12.5563 35.601 16.1101 37.6646 19.7627C41.8025 27.0679 43.1596 35.5862 44.3771 43.7847C44.4157 44.0338 43.997 44.1089 43.9691 43.8362Z" fill="#FA94CE"/>
</g>
</g>
<defs>
<clipPath id="clip0_43_141">
<rect width="98.1923" height="86.6154" fill="white" transform="scale(1.00444)"/>
</clipPath>
</defs>
</svg>
