<svg width="124" height="109" viewBox="0 0 124 109" fill="none" xmlns="http://www.w3.org/2000/svg">
<g clip-path="url(#clip0_43_208)">
<mask id="mask0_43_208" style="mask-type:luminance" maskUnits="userSpaceOnUse" x="0" y="-21" width="130" height="130">
<path d="M0.362975 -20.135H129.498V109H0.362975V-20.135Z" fill="white"/>
</mask>
<g mask="url(#mask0_43_208)">
<path d="M59.7748 76.5473C57.4288 77.3409 55.0829 78.1345 52.7369 78.9255C52.2715 78.0404 51.4456 76.6925 50.0628 75.4308C46.9554 72.5898 44.9296 73.4884 41.3246 71.3173C36.6408 68.4978 37.8514 65.5735 32.6376 62.7325C30.6118 61.6295 29.5572 61.5945 27.9027 60.0637C26.4929 58.7562 26.9046 58.4522 24.1039 54.8687C22.2907 52.547 21.384 51.3874 20.8594 50.8306C20.6281 50.583 20.0362 49.9589 19.4255 49.0065C18.7072 47.89 17.9835 46.7655 18.3978 46.0768C18.8901 45.2535 20.6899 45.571 20.7868 45.5898C21.8387 45.7835 22.5193 46.3942 22.9471 46.7843C23.8753 47.6345 24.0071 48.2559 25.3361 50.497C26.0167 51.6457 26.3611 52.2188 26.6705 52.6062C27.0149 53.0366 28.3197 54.6266 30.4262 55.4202C31.4942 55.8238 31.9462 55.7081 34.3971 55.883C36.2319 56.0121 38.3895 56.2488 39.5248 56.4614C41.2278 56.7815 43.5872 57.6075 46.2721 59.8915C45.6318 58.3607 44.8812 57.3034 44.3055 56.6147C43.7486 55.9475 43.4392 55.7135 41.8385 53.9432C40.9345 52.9398 40.6036 52.547 40.348 51.8852C39.9929 50.9678 40.2593 50.7687 39.8853 49.7786C39.81 49.5796 39.7104 49.3563 38.5482 47.5672C37.7788 46.3862 37.5394 46.0445 37.6739 45.7163C37.873 45.2401 38.7123 45.1648 38.9087 45.1513C40.8888 45.0275 42.9254 47.2336 43.8428 49.4181C44.1172 50.0692 43.988 49.9992 44.2544 50.6019C44.6203 51.4251 45.4758 52.9478 47.9051 54.5082C49.6458 55.6274 49.8421 55.2507 52.2742 56.4614C55.664 58.1482 57.6198 60.0395 58.0933 60.5103C59.1426 61.5514 59.8797 62.5253 60.3451 63.1952C60.1541 67.645 59.9658 72.0975 59.7748 76.5473Z" fill="white"/>
<path d="M23.6404 43.9178C23.2584 44.1491 23.1616 44.7544 23.1777 45.0988C23.1885 45.3275 23.2557 45.6422 24.1032 46.6942C24.878 47.6519 25.1389 47.7837 25.4914 48.4429C25.7362 48.9002 25.6366 48.8868 25.903 49.4706C26.1747 50.0678 26.6321 50.6731 27.5468 51.8865C27.9153 52.3761 28.0418 52.7635 28.4911 53.2424C28.4911 53.2424 28.8058 53.5733 29.1529 53.8396C30.2075 54.644 31.7598 54.7759 32.5884 54.8485C33.7964 54.9561 34.9989 55.1391 36.2096 55.1875C37.8211 55.2547 40.1294 55.6018 43.0726 56.8851C41.5956 55.6744 40.2612 55.1175 39.3007 54.835C37.9556 54.4396 37.4659 54.6144 36.1907 54.0656C34.8832 53.506 34.9102 53.0944 33.2529 52.142C31.1814 50.9529 30.7994 51.343 29.882 50.4956C28.6202 49.328 29.2067 48.459 27.9584 46.643C26.6778 44.7787 24.4879 43.4066 23.6404 43.9178Z" fill="white"/>
<path d="M28.4986 44.586C28.617 45.2801 29.0313 45.3501 29.3972 46.0254C30.059 47.2414 29.3192 48.1346 30.1182 49.3291C30.2931 49.59 30.4787 49.7703 30.6186 49.9075C31.3504 50.6177 32.1279 50.8867 32.3915 50.9863C34.3958 51.7315 36.3463 53.5152 36.5211 53.2973C36.6799 53.0982 34.7671 51.9629 34.0165 49.703C33.7205 48.8125 33.4676 47.8225 33.4676 47.8225C33.1905 46.7329 33.1905 46.4719 32.9323 45.9742C32.6121 45.3582 32.2166 45.0057 31.6598 44.508C30.4922 43.4669 29.7012 43.3431 29.4618 43.3135C29.1416 43.2759 28.9291 43.3081 28.7677 43.4292C28.3722 43.7305 28.4717 44.43 28.4986 44.586Z" fill="white"/>
<path d="M63.8116 76.5473C66.1576 77.3409 68.5035 78.1345 70.8495 78.9255C71.3149 78.0404 72.1408 76.6925 73.5237 75.4308C76.631 72.5898 78.6568 73.4884 82.2618 71.3173C86.9456 68.4978 85.735 65.5735 90.9488 62.7325C92.9746 61.6295 94.0292 61.5945 95.6838 60.0637C97.0935 58.7562 96.6819 58.4522 99.4825 54.8687C101.296 52.547 102.202 51.3874 102.727 50.8306C102.958 50.583 103.55 49.9589 104.161 49.0065C104.879 47.89 105.603 46.7655 105.189 46.0768C104.696 45.2535 102.896 45.571 102.8 45.5898C101.748 45.7835 101.067 46.3942 100.639 46.7843C99.7112 47.6345 99.5793 48.2559 98.2503 50.497C97.5697 51.6457 97.2253 52.2188 96.9159 52.6062C96.5716 53.0366 95.2668 54.6266 93.1603 55.4202C92.0922 55.8238 91.6402 55.7081 89.1894 55.883C87.3546 56.0121 85.1969 56.2488 84.0616 56.4614C82.3587 56.7815 79.9992 57.6075 77.3143 59.8915C77.9546 58.3607 78.7052 57.3034 79.2809 56.6147C79.8378 55.9475 80.1472 55.7135 81.7479 53.9432C82.6519 52.9398 82.9828 52.547 83.2384 51.8852C83.5935 50.9678 83.3272 50.7687 83.7011 49.7786C83.7764 49.5796 83.876 49.3563 85.0382 47.5672C85.8076 46.3862 86.0471 46.0445 85.9126 45.7163C85.7135 45.2401 84.8741 45.1648 84.6777 45.1513C82.6976 45.0275 80.6611 47.2336 79.7437 49.4181C79.4693 50.0692 79.5984 49.9992 79.3321 50.6019C78.9662 51.4251 78.1106 52.9478 75.6813 54.5082C73.9407 55.6274 73.7443 55.2507 71.3122 56.4614C67.9224 58.1482 65.9666 60.0395 65.4931 60.5103C64.4439 61.5514 63.7067 62.5253 63.2413 63.1952C63.4323 67.645 63.6206 72.0975 63.8116 76.5473Z" fill="white"/>
<path d="M99.9461 43.9178C100.328 44.1491 100.425 44.7544 100.409 45.0988C100.398 45.3275 100.331 45.6422 99.4834 46.6942C98.7086 47.6519 98.4476 47.7837 98.0952 48.4429C97.8504 48.9002 97.9499 48.8868 97.6836 49.4706C97.4118 50.0678 96.9545 50.6731 96.0398 51.8865C95.6712 52.3761 95.5448 52.7635 95.0955 53.2424C95.0955 53.2424 94.7807 53.5733 94.4337 53.8396C93.3791 54.644 91.8267 54.7759 90.9981 54.8485C89.7902 54.9561 88.5876 55.1391 87.377 55.1875C85.7655 55.2547 83.4572 55.6018 80.514 56.8851C81.991 55.6744 83.3254 55.1175 84.2858 54.835C85.631 54.4396 86.1206 54.6144 87.3958 54.0656C88.7033 53.506 88.6764 53.0944 90.3336 52.142C92.4052 50.9529 92.7872 51.343 93.7046 50.4956C94.9663 49.328 94.3799 48.459 95.6282 46.643C96.9087 44.7787 99.0987 43.4066 99.9461 43.9178Z" fill="white"/>
<path d="M95.0881 44.586C94.9697 45.2801 94.5554 45.3501 94.1896 46.0254C93.5277 47.2414 94.2676 48.1346 93.4685 49.3291C93.2937 49.59 93.108 49.7703 92.9682 49.9075C92.2364 50.6177 91.4589 50.8867 91.1952 50.9863C89.191 51.7315 87.2405 53.5152 87.0656 53.2973C86.9069 53.0982 88.8197 51.9629 89.5703 49.703C89.8662 48.8125 90.1191 47.8225 90.1191 47.8225C90.3962 46.7329 90.3962 46.4719 90.6545 45.9742C90.9746 45.3582 91.3701 45.0057 91.927 44.508C93.0946 43.4669 93.8855 43.3431 94.125 43.3135C94.4451 43.2759 94.6577 43.3081 94.8191 43.4292C95.2146 43.7305 95.115 44.43 95.0881 44.586Z" fill="white"/>
<path d="M55.0877 54.9211C52.6503 45.0369 50.455 34.542 44.7919 26.046C42.1608 21.8706 39.1422 17.246 36.1856 13.4203C34.7032 11.5129 32.9841 9.95253 31.9295 9.88527C26.5946 8.44865 22.8793 15.091 26.1184 19.0323C29.8472 23.5279 35.9838 21.2653 40.404 18.7095C43.3741 16.8666 45.5667 14.7063 49.0345 13.4015C59.8657 8.79839 72.4537 9.84761 82.9567 14.9135C87.2827 16.6057 91.9396 19.6404 96.4809 20.5551C100.901 21.7684 103.844 17.7168 103.503 13.8669C102.639 8.45403 98.0117 8.09622 93.5081 10.0037C86.9141 12.9603 82.989 19.3982 79.3436 25.7501C74.1782 34.4075 71.4664 44.5984 69.4836 54.8081C69.4513 55.1202 68.9428 55.1068 68.9697 54.7651C70.2423 38.3407 79.3113 5.08845 99.7012 5.03464C113.137 7.07659 108.851 28.0987 95.6415 25.3142C87.7966 23.7081 81.3829 18.731 73.7585 16.8317C65.0876 14.7494 55.3514 15.0587 47.5683 19.7426C42.4702 23.5763 36.0188 27.4342 29.3226 26.0837C20.345 24.1816 17.2485 12.8527 25.002 7.42363C27.3076 5.88747 30.24 5.67224 32.8388 6.31254C35.5964 7.07389 37.3397 9.36874 38.8974 11.4188C41.9213 15.7313 44.6036 20.1838 47.189 24.76C52.3732 33.9125 54.0735 44.5849 55.5989 54.8566C55.6473 55.1686 55.1227 55.2628 55.0877 54.9211Z" fill="white"/>
</g>
</g>
<defs>
<clipPath id="clip0_43_208">
<rect width="123.133" height="108.615" fill="white" transform="scale(1.00354)"/>
</clipPath>
</defs>
</svg>
